HIERARCHY
ROOT Hips
{
	OFFSET 0.307897 91.276000 1.250510
	CHANNELS 6 Xposition Yposition Zposition Zrotation Yrotation Xrotation 
	JOINT Spine
	{
		OFFSET 0.000000 9.923500 -1.227300
		CHANNELS 3 Zrotation Yrotation Xrotation
		JOINT Spine1
		{
			OFFSET -0.000100 11.645400 -1.422300
			CHANNELS 3 Zrotation Yrotation Xrotation
			JOINT Spine2
			{
				OFFSET 0.000100 13.360200 -1.626500
				CHANNELS 3 Zrotation Yrotation Xrotation
				JOINT Neck
				{
					OFFSET 0.000000 15.032500 0.792900
					CHANNELS 3 Zrotation Yrotation Xrotation
					JOINT Head
					{
						OFFSET 0.000000 10.321800 3.142400
						CHANNELS 3 Zrotation Yrotation Xrotation
						JOINT HeadTop_End
						{
							OFFSET 0.000200 18.474700 6.636400
							CHANNELS 3 Zrotation Yrotation Xrotation
							End Site
							{
								OFFSET 0.000000 0.000000 0.000000
							}
						}
						JOINT LeftEye
						{
							OFFSET 2.947900 7.681700 9.120700
							CHANNELS 3 Zrotation Yrotation Xrotation
							End Site
							{
								OFFSET 0.000000 0.000000 0.000000
							}
						}
						JOINT RightEye
						{
							OFFSET -2.944500 7.681700 9.120500
							CHANNELS 3 Zrotation Yrotation Xrotation
							End Site
							{
								OFFSET 0.000000 0.000000 0.000000
							}
						}
					}
				}
				JOINT LeftShoulder
				{
					OFFSET 6.105800 9.110400 0.705600
					CHANNELS 3 Zrotation Yrotation Xrotation
					JOINT LeftArm
					{
						OFFSET 12.655000 -0.265900 -2.600900
						CHANNELS 3 Zrotation Yrotation Xrotation
						JOINT LeftForeArm
						{
							OFFSET 27.404700 0.000000 0.000000
							CHANNELS 3 Zrotation Yrotation Xrotation
							JOINT LeftHand
							{
								OFFSET 27.614500 0.000000 0.000000
								CHANNELS 3 Zrotation Yrotation Xrotation
								JOINT LeftHandMiddle1
								{
									OFFSET 12.775500 0.000000 0.000000
									CHANNELS 3 Zrotation Yrotation Xrotation
									JOINT LeftHandMiddle2
									{
										OFFSET 3.614000 0.000000 0.000000
										CHANNELS 3 Zrotation Yrotation Xrotation
										JOINT LeftHandMiddle3
										{
											OFFSET 3.459800 0.000000 0.000000
											CHANNELS 3 Zrotation Yrotation Xrotation
											End Site
											{
												OFFSET 0.000000 0.000000 0.000000
											}
										}
									}
								}
								JOINT LeftHandThumb1
								{
									OFFSET 3.788800 -2.167000 3.003100
									CHANNELS 3 Zrotation Yrotation Xrotation
									JOINT LeftHandThumb2
									{
										OFFSET 3.675400 -2.122000 2.122000
										CHANNELS 3 Zrotation Yrotation Xrotation
										JOINT LeftHandThumb3
										{
											OFFSET 3.394400 -1.959700 1.959800
											CHANNELS 3 Zrotation Yrotation Xrotation
											End Site
											{
												OFFSET 0.000000 0.000000 0.000000
											}
										}
									}
								}
								JOINT LeftHandIndex1
								{
									OFFSET 12.266600 -0.231700 2.822100
									CHANNELS 3 Zrotation Yrotation Xrotation
									JOINT LeftHandIndex2
									{
										OFFSET 3.892000 0.000000 0.000000
										CHANNELS 3 Zrotation Yrotation Xrotation
										JOINT LeftHandIndex3
										{
											OFFSET 3.415200 0.000000 0.000000
											CHANNELS 3 Zrotation Yrotation Xrotation
											End Site
											{
												OFFSET 0.000000 0.000000 0.000000
											}
										}
									}
								}
								JOINT LeftHandRing1
								{
									OFFSET 12.147000 0.009900 -2.216600
									CHANNELS 3 Zrotation Yrotation Xrotation
									JOINT LeftHandRing2
									{
										OFFSET 3.601200 0.000000 0.000000
										CHANNELS 3 Zrotation Yrotation Xrotation
										JOINT LeftHandRing3
										{
											OFFSET 3.307300 0.000000 0.000000
											CHANNELS 3 Zrotation Yrotation Xrotation
											End Site
											{
												OFFSET 0.000000 0.000000 0.000000
											}
										}
									}
								}
								JOINT LeftHandPinky1
								{
									OFFSET 10.908200 -0.226400 -4.725800
									CHANNELS 3 Zrotation Yrotation Xrotation
									JOINT LeftHandPinky2
									{
										OFFSET 4.136700 0.000000 0.000000
										CHANNELS 3 Zrotation Yrotation Xrotation
										JOINT LeftHandPinky3
										{
											OFFSET 2.594800 0.000000 0.000000
											CHANNELS 3 Zrotation Yrotation Xrotation
											End Site
											{
												OFFSET 0.000000 0.000000 0.000000
											}
										}
									}
								}
							}
						}
					}
				}
				JOINT RightShoulder
				{
					OFFSET -6.105700 9.110500 0.705600
					CHANNELS 3 Zrotation Yrotation Xrotation
					JOINT RightArm
					{
						OFFSET -12.655000 -0.266000 -2.600900
						CHANNELS 3 Zrotation Yrotation Xrotation
						JOINT RightForeArm
						{
							OFFSET -27.404700 0.000000 0.000000
							CHANNELS 3 Zrotation Yrotation Xrotation
							JOINT RightHand
							{
								OFFSET -27.614500 0.000000 0.000000
								CHANNELS 3 Zrotation Yrotation Xrotation
								JOINT RightHandMiddle1
								{
									OFFSET -12.775500 0.000000 0.000000
									CHANNELS 3 Zrotation Yrotation Xrotation
									JOINT RightHandMiddle2
									{
										OFFSET -3.614000 0.000000 0.000000
										CHANNELS 3 Zrotation Yrotation Xrotation
										JOINT RightHandMiddle3
										{
											OFFSET -3.459800 0.000000 0.000000
											CHANNELS 3 Zrotation Yrotation Xrotation
											End Site
											{
												OFFSET 0.000000 0.000000 0.000000
											}
										}
									}
								}
								JOINT RightHandThumb1
								{
									OFFSET -3.788800 -2.167000 3.003100
									CHANNELS 3 Zrotation Yrotation Xrotation
									JOINT RightHandThumb2
									{
										OFFSET -3.675400 -2.122000 2.122000
										CHANNELS 3 Zrotation Yrotation Xrotation
										JOINT RightHandThumb3
										{
											OFFSET -3.394400 -1.959700 1.959800
											CHANNELS 3 Zrotation Yrotation Xrotation
											End Site
											{
												OFFSET 0.000000 0.000000 0.000000
											}
										}
									}
								}
								JOINT RightHandIndex1
								{
									OFFSET -12.266600 -0.231700 2.822100
									CHANNELS 3 Zrotation Yrotation Xrotation
									JOINT RightHandIndex2
									{
										OFFSET -3.892000 0.000000 0.000000
										CHANNELS 3 Zrotation Yrotation Xrotation
										JOINT RightHandIndex3
										{
											OFFSET -3.415200 0.000000 0.000000
											CHANNELS 3 Zrotation Yrotation Xrotation
											End Site
											{
												OFFSET 0.000000 0.000000 0.000000
											}
										}
									}
								}
								JOINT RightHandRing1
								{
									OFFSET -12.147000 0.009900 -2.216600
									CHANNELS 3 Zrotation Yrotation Xrotation
									JOINT RightHandRing2
									{
										OFFSET -3.601200 0.000000 0.000000
										CHANNELS 3 Zrotation Yrotation Xrotation
										JOINT RightHandRing3
										{
											OFFSET -3.307300 0.000000 0.000000
											CHANNELS 3 Zrotation Yrotation Xrotation
											End Site
											{
												OFFSET 0.000000 0.000000 0.000000
											}
										}
									}
								}
								JOINT RightHandPinky1
								{
									OFFSET -10.908200 -0.226400 -4.725800
									CHANNELS 3 Zrotation Yrotation Xrotation
									JOINT RightHandPinky2
									{
										OFFSET -4.136700 0.000000 0.000000
										CHANNELS 3 Zrotation Yrotation Xrotation
										JOINT RightHandPinky3
										{
											OFFSET -2.594800 0.000000 0.000000
											CHANNELS 3 Zrotation Yrotation Xrotation
											End Site
											{
												OFFSET 0.000000 0.000000 0.000000
											}
										}
									}
								}
							}
						}
					}
				}
			}
		}
	}
	JOINT RightUpLeg
	{
		OFFSET -9.124500 -6.656400 -0.055400
		CHANNELS 3 Zrotation Yrotation Xrotation
		JOINT RightLeg
		{
			OFFSET -0.244700 -40.595400 -0.514500
			CHANNELS 3 Zrotation Yrotation Xrotation
			JOINT RightFoot
			{
				OFFSET 0.244700 -42.047900 -2.060200
				CHANNELS 3 Zrotation Yrotation Xrotation
				JOINT RightToeBase
				{
					OFFSET -0.373400 -10.492200 12.640700
					CHANNELS 3 Zrotation Yrotation Xrotation
					End Site
					{
						OFFSET 0.000000 0.000000 0.000000
					}
				}
			}
		}
	}
	JOINT LeftUpLeg
	{
		OFFSET 9.124500 -6.656400 -0.055400
		CHANNELS 3 Zrotation Yrotation Xrotation
		JOINT LeftLeg
		{
			OFFSET 0.244700 -40.595400 -0.517000
			CHANNELS 3 Zrotation Yrotation Xrotation
			JOINT LeftFoot
			{
				OFFSET -0.244700 -42.048000 -2.057600
				CHANNELS 3 Zrotation Yrotation Xrotation
				JOINT LeftToeBase
				{
					OFFSET 0.373400 -10.492200 0.000000
					CHANNELS 3 Zrotation Yrotation Xrotation
					End Site
					{
						OFFSET 0.000000 0.000000 0.000000
					}
				}
			}
		}
	}
}
MOTION
Frames: 7
Frame Time: 0.016667
0.307897 91.276000 1008.710510 -0.413271 5.119758 18.751384 7.819295 0.930799 14.103800 3.835504 0.093857 10.363114 3.840211 0.011819 10.359000 -0.729974 -0.166691 -9.683131 -6.548913 -2.427298 -28.204666 -0.000000 0.000000 -0.000000 -0.000000 0.000000 -0.000000 -0.000000 0.000000 -0.000000 -5.476158 -4.882473 1.113079 -64.514869 11.954433 7.687895 0.000022 -63.544800 -0.000026 -4.805562 -3.487827 -15.392415 -23.156936 4.497554 -1.340489 -39.242194 3.707216 -1.322017 -23.603610 2.348464 -0.490762 3.635839 -13.883614 -9.280695 7.978001 29.461745 11.165264 23.498018 34.023701 10.205521 -25.574418 -16.523353 6.192516 -48.615706 4.394440 -1.985660 -48.615606 4.394430 -1.985660 -44.788897 5.839384 -3.312608 -63.301913 5.228257 -3.224238 -65.308412 5.316612 -3.408642 -61.788387 14.408568 -18.058532 -80.883254 5.774723 -4.923045 -80.883255 5.774723 -4.923055 4.093815 14.448107 2.165518 17.608962 21.431168 -7.955622 0.000033 65.299800 0.000022 -0.901547 16.574160 5.435871 23.021842 -3.939892 -1.218600 83.873362 -4.627740 -4.158019 64.667377 -4.208341 -2.664589 -0.560141 10.472880 -0.630607 -8.695217 -30.013773 11.535040 -37.033230 -49.738542 27.963368 0.003875 0.191851 7.871074 83.873360 -4.627730 -4.158009 22.143449 -1.757618 -0.343946 43.884895 -2.334266 -2.843151 88.726950 -4.653039 -4.550900 88.417051 -4.652432 -4.525773 45.055414 -4.847475 -16.589644 88.436983 -4.652462 -4.527369 88.436985 -4.652472 -4.527379 8.491472 -9.031866 -50.097378 -2.286881 3.466421 48.322112 1.498885 -7.432882 -18.238479 -0.000001 0.000004 -5.768400 5.154760 17.678407 -55.031484 7.093982 7.166044 57.275114 -1.903415 22.644521 -9.060925 0.000003 0.000027 -2.913910 
0.563670 92.082300 1010.984970 -0.250071 6.029319 17.769143 7.519322 1.463327 13.216088 3.660568 0.347399 9.841953 3.670070 0.266751 9.838468 -0.721006 -0.410452 -9.414084 -4.700112 -3.038280 -25.701757 -0.000000 0.000000 0.000000 -0.000000 0.000000 0.000000 -0.000000 0.000000 0.000000 -4.511073 -4.907404 0.946227 -61.622406 14.728590 12.621426 0.000029 -65.117700 -0.000034 -6.048195 -4.010481 -15.595156 -23.699086 4.368802 -1.383180 -40.057065 3.771207 -1.375168 -23.603611 2.348464 -0.490764 3.635829 -13.883614 -9.280695 7.978001 29.461745 11.165264 23.498018 34.023701 10.205521 -26.412645 -15.935762 5.867649 -49.116645 4.427996 -2.024194 -48.615706 4.394440 -1.985660 -44.788897 5.839375 -3.312608 -63.563365 5.240135 -3.248099 -65.308413 5.316612 -3.408652 -61.788487 14.408568 -18.058532 -80.651570 5.770947 -4.899743 -80.883254 5.774723 -4.923045 3.286040 13.842752 1.967063 18.141926 18.280954 -4.396338 -0.000000 65.757900 -0.000011 -2.939713 17.419770 5.910650 27.987074 -4.222056 -1.572148 86.061178 -4.643248 -4.334844 64.667376 -4.208331 -2.664589 0.524584 10.057881 -0.281156 -8.695217 -30.013773 11.535040 -37.033230 -49.738542 27.963368 6.735992 -0.409772 7.519373 88.022659 -4.651420 -4.493770 22.484732 -1.783306 -0.354504 47.345872 -2.696065 -3.142662 88.726951 -4.653059 -4.550900 88.417051 -4.652442 -4.525763 47.061829 -5.387558 -16.389430 88.436986 -4.652482 -4.527389 88.436984 -4.652462 -4.527379 8.299998 -10.072853 -46.178614 -2.728396 3.096485 46.278602 1.817312 -7.084914 -19.234876 -0.000001 0.000000 -5.952160 4.580144 18.439587 -53.701858 6.073160 7.432503 52.386767 -3.082041 20.293870 -6.805146 0.000006 0.000007 -2.945310 
0.872421 92.956500 1013.470940 -0.032371 7.037401 16.533995 7.183009 1.846723 12.393139 3.402952 0.574726 9.247429 3.412552 0.510507 9.245840 -0.685724 -0.735164 -8.681200 -2.552859 -3.804515 -22.917171 -0.000000 0.000000 0.000000 -0.000000 0.000000 0.000000 -0.000000 0.000000 0.000000 -2.637610 -4.938904 0.899530 -58.148837 17.346754 17.635355 -0.000011 -67.446400 0.000022 -7.874313 -4.238122 -15.015020 -25.169564 4.017256 -1.500778 -42.310745 3.944144 -1.526807 -23.603610 2.348464 -0.490758 3.635829 -13.883614 -9.280695 7.978001 29.461745 11.165264 23.498018 34.023701 10.205521 -28.598449 -14.371077 4.995918 -50.476759 4.517369 -2.130261 -48.615706 4.394440 -1.985660 -44.788897 5.839375 -3.312608 -64.295496 5.272821 -3.315174 -65.308412 5.316612 -3.408642 -61.788487 14.408568 -18.058532 -79.996669 5.759789 -4.833952 -80.883253 5.774713 -4.923045 2.383102 13.129687 1.779124 18.522346 15.609196 -0.867929 -0.000005 66.227600 -0.000002 -5.511525 17.926009 6.514983 33.532911 -4.499594 -1.994189 88.479373 -4.652569 -4.530811 64.667375 -4.208321 -2.664579 1.720914 9.578576 0.097798 -8.695217 -30.013773 11.535040 -37.033230 -49.738542 27.963368 14.333484 -1.066107 6.916433 92.653842 -4.649223 -4.869461 22.861981 -1.811603 -0.366333 51.173556 -3.085611 -3.480082 88.726950 -4.653049 -4.550900 88.417051 -4.652442 -4.525773 49.272946 -5.975644 -16.155970 88.436986 -4.652482 -4.527389 88.436986 -4.652472 -4.527389 7.743255 -11.261179 -41.552716 -2.907021 2.932815 43.701676 2.340504 -7.012936 -20.084656 0.000001 0.000001 -6.204390 3.876232 19.205645 -51.277749 5.208903 7.790819 47.152863 -5.245223 18.817785 -4.111026 -0.000002 -0.000011 -2.056880 
1.194660 93.869900 1016.312180 0.227377 8.201445 15.130588 6.821321 2.139818 11.344816 3.069382 0.858398 8.473148 3.078077 0.814862 8.473143 -0.640130 -1.171067 -7.595506 -0.563199 -4.570382 -20.071254 0.000000 -0.000000 0.000000 0.000000 -0.000000 0.000000 0.000000 -0.000000 0.000000 -0.481360 -4.982357 0.886236 -53.071650 20.191643 22.706109 0.000027 -70.760600 -0.000030 -9.625431 -4.260796 -13.821555 -27.333915 3.493614 -1.678550 -45.716975 4.193738 -1.768577 -23.603610 2.348454 -0.490757 3.635829 -13.883614 -9.280695 7.978001 29.461745 11.165264 23.498018 34.023701 10.205521 -31.631951 -12.122068 3.727201 -52.481858 4.644453 -2.290415 -48.615706 4.394430 -1.985660 -44.788897 5.839384 -3.312608 -65.420056 5.321336 -3.418992 -65.308413 5.316612 -3.408652 -61.788387 14.408568 -18.058532 -78.979115 5.740967 -4.731988 -80.883253 5.774713 -4.923045 1.724415 12.479223 1.593630 18.885556 12.252387 2.888344 -0.000001 67.236900 -0.000023 -8.075790 17.548181 6.986127 39.467717 -4.749882 -2.473129 91.065070 -4.653407 -4.740602 64.667375 -4.208341 -2.664569 2.990812 9.044952 0.492146 -8.695217 -30.013773 11.535040 -37.033230 -49.738542 27.963368 22.426891 -1.707266 6.039661 97.606137 -4.613424 -5.269581 23.265387 -1.841780 -0.379191 55.269185 -3.489570 -3.846663 88.726954 -4.653068 -4.550921 88.417051 -4.652432 -4.525773 51.638411 -6.597503 -15.890989 88.436985 -4.652472 -4.527379 88.436984 -4.652462 -4.527379 6.714154 -12.588251 -36.129009 -3.064326 2.731156 40.466496 3.178616 -6.900427 -20.797853 0.000002 0.000001 -6.793640 2.731619 19.607136 -48.367523 4.110822 7.796813 41.956943 -5.067070 18.524717 -1.028876 -0.000004 -0.000007 -2.209720 
1.563490 94.795100 1019.167800 0.643096 9.453604 13.700014 6.459565 2.326374 10.210906 2.666272 1.051014 7.702034 2.675358 1.020858 7.702230 -0.591859 -1.636881 -6.268068 1.352647 -5.643094 -17.356967 0.000000 -0.000000 0.000000 0.000000 -0.000000 0.000000 0.000000 -0.000000 0.000000 1.731236 -5.038661 0.878287 -48.095671 23.105485 26.573104 0.000043 -75.161300 -0.000045 -10.888299 -4.081437 -11.724956 -29.957321 2.848554 -1.901290 -49.989690 4.485650 -2.092041 -23.603611 2.348474 -0.490765 3.635829 -13.883614 -9.280695 7.978001 29.461745 11.165264 23.498018 34.023701 10.205521 -35.032361 -9.494576 2.223535 -54.917468 4.791130 -2.490769 -48.615706 4.394440 -1.985660 -44.788897 5.839375 -3.312608 -66.858698 5.380428 -3.553165 -65.308412 5.316612 -3.408642 -61.788487 14.408568 -18.058532 -77.659285 5.713876 -4.600285 -80.883255 5.774723 -4.923055 1.022248 11.738794 1.440136 19.402222 9.495098 6.426143 0.000020 68.453300 -0.000008 -10.453102 17.322001 7.424747 45.599087 -4.955029 -2.992273 93.755499 -4.644249 -4.958712 64.667377 -4.208361 -2.664579 4.297069 8.468926 0.888678 -8.695217 -30.013773 11.535040 -37.033230 -49.738542 27.963368 30.645830 -2.263014 4.912891 102.717942 -4.540509 -5.677767 23.685139 -1.873096 -0.392798 59.533775 -3.895589 -4.232557 88.726950 -4.653049 -4.550900 88.417050 -4.652432 -4.525763 54.107414 -7.239705 -15.597475 88.436985 -4.652462 -4.527389 88.436986 -4.652472 -4.527389 5.488803 -13.907514 -30.240369 -3.124067 2.588487 36.467996 3.950225 -7.047094 -21.113237 0.000003 -0.000002 -7.760550 1.900434 19.845691 -44.736939 3.016032 7.512595 37.224322 -5.071159 18.547225 1.303850 0.000002 0.000011 -2.300330 
1.938800 95.684500 1022.153100 1.278996 10.674583 12.285022 6.078983 2.450549 8.909364 2.168893 1.198327 6.869840 2.186123 1.141784 6.870401 -0.543065 -2.082407 -4.810064 2.840438 -6.752277 -14.151784 -0.000000 0.000000 0.000000 -0.000000 0.000000 0.000000 -0.000000 0.000000 0.000000 4.011564 -5.109357 0.882575 -42.759995 25.910726 29.844121 0.000075 -80.134500 -0.000080 -11.692839 -3.572136 -9.663865 -32.805890 2.134715 -2.151794 -54.842556 4.786747 -2.484521 -23.603610 2.348464 -0.490759 3.635841 -13.883614 -9.280705 7.978001 29.461745 11.165264 23.498018 34.023701 10.205521 -38.356254 -6.818967 0.670835 -57.569077 4.940932 -2.715739 -48.615706 4.394440 -1.985660 -44.788897 5.839375 -3.312608 -68.533132 5.444917 -3.711118 -65.308412 5.316612 -3.408642 -61.788387 14.408568 -18.058532 -76.097980 5.677930 -4.445323 -80.883255 5.774723 -4.923055 0.458957 11.049853 1.316807 20.436482 6.868105 10.537269 -0.000003 70.138100 -0.000000 -12.812447 17.802268 6.741145 51.733674 -5.103756 -3.530586 96.487634 -4.624522 -5.179498 64.667376 -4.208341 -2.664579 5.603689 7.865025 1.275440 -8.695217 -30.013773 11.535040 -37.033230 -49.738542 27.963368 38.617662 -2.678849 3.607688 107.829382 -4.431600 -6.077779 24.111423 -1.904782 -0.406841 63.868064 -4.292418 -4.626967 88.726952 -4.653058 -4.550910 88.417049 -4.652422 -4.525763 56.628852 -7.889456 -15.279400 88.436984 -4.652462 -4.527379 88.436986 -4.652472 -4.527389 4.036954 -15.143234 -25.945318 -2.883058 2.880947 34.983058 4.697844 -7.337799 -19.262596 -0.000002 -0.000003 -10.029000 1.705667 19.894319 -40.119532 1.413765 6.045430 33.257721 -5.946839 19.962887 2.204212 -0.000003 0.000001 -1.960330 
2.364360 96.530700 1025.372500 1.561373 11.855006 10.841757 5.725890 2.422594 8.031125 1.706554 1.307232 6.171642 1.711601 1.257741 6.179655 -0.499219 -2.535531 -3.332506 4.132276 -8.339724 -11.705301 0.000000 0.000000 0.000000 0.000000 0.000000 0.000000 0.000000 0.000000 0.000000 6.012416 -5.185877 0.854081 -38.320256 27.183026 31.913147 -0.000111 -84.730900 0.000088 -11.611708 -2.790023 -8.879280 -35.647762 1.408084 -2.410228 -59.988090 5.068385 -2.926794 -23.603610 2.348464 -0.490759 3.635826 -13.883615 -9.280685 7.978001 29.461745 11.165264 23.498018 34.023701 10.205521 -41.197978 -4.449159 -0.720839 -60.221929 5.080226 -2.947479 -48.615707 4.394440 -1.985670 -44.788897 5.839384 -3.312608 -70.364910 5.510181 -3.885984 -65.308413 5.316612 -3.408652 -61.788519 14.408663 -18.058540 -74.355641 5.632856 -4.273594 -80.883255 5.774723 -4.923055 -0.051975 10.289566 1.206913 21.402224 4.055814 13.883363 -0.000000 71.873400 -0.000011 -14.066201 18.431184 5.869193 57.677741 -5.192360 -4.064406 99.198637 -4.594616 -5.397416 64.667376 -4.208341 -2.664579 6.875857 7.250114 1.641911 -8.695217 -30.013773 11.535040 -37.033230 -49.738542 27.963368 45.968283 -2.930383 2.235014 112.777160 -4.292651 -6.454403 24.534425 -1.936148 -0.421019 68.172380 -4.670356 -5.018716 88.726951 -4.653059 -4.550900 88.417049 -4.652422 -4.525763 59.151256 -8.534603 -14.942456 88.436986 -4.652462 -4.527399 88.436986 -4.652482 -4.527379 2.955212 -16.105205 -22.568353 -2.449717 3.437192 35.036535 5.354437 -7.611586 -15.683601 -0.000003 0.000003 -12.340800 2.500029 20.353950 -34.812304 -0.198314 3.900666 30.181862 -7.566249 21.509196 1.795863 0.316151 0.014449 -2.827120 
